<mxfile host="app.diagrams.net" modified="2024-07-22T03:44:22.220Z" agent="Mozilla/5.0 (Macintosh; Intel Mac OS X 10_15_7) AppleWebKit/537.36 (KHTML, like Gecko) Chrome/126.0.0.0 Safari/537.36" version="24.7.1" etag="Ujr5dSURG4wEKVh-7dvn" type="github">
  <diagram name="Page-1" id="CwDp1cfEpnnd3-WKJxpW">
    <mxGraphModel>
      <root>
        <mxCell id="0" />
        <mxCell id="1" parent="0" />
      </root>
    </mxGraphModel>
  </diagram>
</mxfile>
